<svg width="23" height="37" viewBox="0 0 23 37" fill="none" xmlns="http://www.w3.org/2000/svg">
<path d="M9.2 27.75C8.895 27.75 8.60249 27.8718 8.38683 28.0887C8.17116 28.3055 8.05 28.5996 8.05 28.9062C8.05 29.2129 8.17116 29.507 8.38683 29.7238C8.60249 29.9407 8.895 30.0625 9.2 30.0625H13.8C14.105 30.0625 14.3975 29.9407 14.6132 29.7238C14.8288 29.507 14.95 29.2129 14.95 28.9062C14.95 28.5996 14.8288 28.3055 14.6132 28.0887C14.3975 27.8718 14.105 27.75 13.8 27.75H9.2Z" fill="#0FA2B7"/>
<path d="M4.6 0C3.38 0 2.20998 0.487275 1.34731 1.35463C0.484641 2.22199 0 3.39837 0 4.625V32.375C0 33.6016 0.484641 34.778 1.34731 35.6454C2.20998 36.5127 3.38 37 4.6 37H18.4C19.62 37 20.79 36.5127 21.6527 35.6454C22.5154 34.778 23 33.6016 23 32.375V4.625C23 3.39837 22.5154 2.22199 21.6527 1.35463C20.79 0.487275 19.62 0 18.4 0H4.6ZM2.3 4.625C2.3 4.01169 2.54232 3.42349 2.97365 2.98982C3.40499 2.55614 3.99 2.3125 4.6 2.3125H18.4C19.01 2.3125 19.595 2.55614 20.0263 2.98982C20.4577 3.42349 20.7 4.01169 20.7 4.625V32.375C20.7 32.9883 20.4577 33.5765 20.0263 34.0102C19.595 34.4439 19.01 34.6875 18.4 34.6875H4.6C3.99 34.6875 3.40499 34.4439 2.97365 34.0102C2.54232 33.5765 2.3 32.9883 2.3 32.375V4.625Z" fill="#0FA2B7"/>
</svg>
