<svg width="45" height="37" viewBox="0 0 45 37" fill="none" xmlns="http://www.w3.org/2000/svg">
<path d="M8.4375 3.96429C8.4375 2.91289 8.88197 1.90456 9.67314 1.16111C10.4643 0.417665 11.5374 0 12.6562 0H32.3438C33.4626 0 34.5357 0.417665 35.3269 1.16111C36.118 1.90456 36.5625 2.91289 36.5625 3.96429V5.28571H37.9688C39.8336 5.28571 41.622 5.98182 42.9406 7.2209C44.2592 8.45998 45 10.1405 45 11.8929V25.1071C45 26.1585 44.5555 27.1669 43.7644 27.9103C42.9732 28.6538 41.9001 29.0714 40.7812 29.0714H36.5625V33.0357C36.5625 34.0871 36.118 35.0954 35.3269 35.8389C34.5357 36.5823 33.4626 37 32.3438 37H12.6562C11.5374 37 10.4643 36.5823 9.67314 35.8389C8.88197 35.0954 8.4375 34.0871 8.4375 33.0357V29.0714H4.21875C3.09987 29.0714 2.02681 28.6538 1.23564 27.9103C0.444474 27.1669 0 26.1585 0 25.1071V11.8929C0 10.1405 0.74079 8.45998 2.05941 7.2209C3.37802 5.98182 5.16645 5.28571 7.03125 5.28571H8.4375V3.96429ZM11.25 5.28571H33.75V3.96429C33.75 3.61382 33.6018 3.27771 33.3381 3.02989C33.0744 2.78208 32.7167 2.64286 32.3438 2.64286H12.6562C12.2833 2.64286 11.9256 2.78208 11.6619 3.02989C11.3982 3.27771 11.25 3.61382 11.25 3.96429V5.28571ZM8.4375 26.4286V22.4643C8.4375 21.4129 8.88197 20.4046 9.67314 19.6611C10.4643 18.9177 11.5374 18.5 12.6562 18.5H32.3438C33.4626 18.5 34.5357 18.9177 35.3269 19.6611C36.118 20.4046 36.5625 21.4129 36.5625 22.4643V26.4286H40.7812C41.1542 26.4286 41.5119 26.2894 41.7756 26.0415C42.0393 25.7937 42.1875 25.4576 42.1875 25.1071V11.8929C42.1875 10.8415 41.743 9.83313 40.9519 9.08968C40.1607 8.34624 39.0876 7.92857 37.9688 7.92857H7.03125C5.91237 7.92857 4.83931 8.34624 4.04814 9.08968C3.25697 9.83313 2.8125 10.8415 2.8125 11.8929V25.1071C2.8125 25.4576 2.96066 25.7937 3.22438 26.0415C3.4881 26.2894 3.84579 26.4286 4.21875 26.4286H8.4375ZM12.6562 21.1429C12.2833 21.1429 11.9256 21.2821 11.6619 21.5299C11.3982 21.7777 11.25 22.1138 11.25 22.4643V33.0357C11.25 33.3862 11.3982 33.7223 11.6619 33.9701C11.9256 34.2179 12.2833 34.3571 12.6562 34.3571H32.3438C32.7167 34.3571 33.0744 34.2179 33.3381 33.9701C33.6018 33.7223 33.75 33.3862 33.75 33.0357V22.4643C33.75 22.1138 33.6018 21.7777 33.3381 21.5299C33.0744 21.2821 32.7167 21.1429 32.3438 21.1429H12.6562Z" fill="#0FA2B7"/>
</svg>
