<svg xmlns="http://www.w3.org/2000/svg" width="120" height="120" xmlns:v="https://vecta.io/nano"><path d="M105.891 80.105c-3.223 8.738-8.102 16.336-14.496 22.578-7.277 7.109-16.809 12.754-28.324 16.785-.379.129-.773.238-1.172.316a8.67 8.67 0 0 1-1.582.168h-.105a8.83 8.83 0 0 1-1.687-.168c-.395-.078-.785-.187-1.16-.316-11.535-4.02-21.074-9.664-28.363-16.773-6.395-6.242-11.27-13.836-14.488-22.574C8.656 64.234 8.988 46.73 9.258 32.668l.004-.219a113.85 113.85 0 0 0 .109-3.727c.098-6.613 5.355-12.086 11.969-12.453C35.133 15.5 45.801 11 54.918 2.113l.078-.07C56.512.652 58.418-.027 60.316 0a7.69 7.69 0 0 1 5.113 2.043l.078.07C74.625 11 85.293 15.5 99.086 16.27c6.613.367 11.871 5.84 11.973 12.453.016 1.355.051 2.574.105 3.727l.004.094c.266 14.09.598 31.625-5.277 47.563zm0 0" fill="rgb(0%,86.666667%,50.196078%)"/><path d="M105.891 80.105c-3.223 8.738-8.102 16.336-14.496 22.578-7.277 7.109-16.809 12.754-28.324 16.785-.379.129-.773.238-1.172.316a8.67 8.67 0 0 1-1.582.168V0a7.69 7.69 0 0 1 5.113 2.043l.078.07C74.625 11 85.293 15.5 99.086 16.27c6.613.367 11.871 5.84 11.973 12.453.016 1.355.051 2.574.105 3.727l.004.094c.266 14.09.598 31.625-5.277 47.563zm0 0" fill="rgb(0%,66.666667%,38.823529%)"/><path d="M90.105 59.977c0 16.449-13.355 29.836-29.789 29.895h-.105c-16.484 0-29.895-13.41-29.895-29.895s13.41-29.895 29.895-29.895h.105c16.434.059 29.789 13.445 29.789 29.895zm0 0" fill="rgb(100%,100%,100%)"/><path d="M90.105 59.977c0 16.449-13.355 29.836-29.789 29.895V30.082c16.434.059 29.789 13.445 29.789 29.895zm0 0" fill="rgb(88.235294%,92.156863%,94.117647%)"/><path d="M73.781 55.672L57.406 72.047a3.51 3.51 0 0 1-2.488 1.031 3.52 3.52 0 0 1-2.492-1.031l-6.254-6.258a3.52 3.52 0 0 1 4.977-4.977l3.77 3.77 13.887-13.887a3.52 3.52 0 0 1 4.977 4.977zm0 0" fill="rgb(70.588235%,82.352941%,84.313725%)"/><path d="M73.781 55.672L60.316 69.137V59.18l8.488-8.484a3.52 3.52 0 0 1 4.977 4.977zm0 0" fill="rgb(43.529412%,64.705882%,66.666667%)"/></svg>