<svg width="99" height="30" viewBox="0 0 99 30" fill="none" xmlns="http://www.w3.org/2000/svg">
<path d="M4.03827 25.9617C5.13739 27.0609 6.53421 27.5534 8.28086 27.7882C9.98245 28.017 12.1598 28.017 14.9228 28.0169H15H15.0772C17.8402 28.017 20.0175 28.017 21.7191 27.7882C23.4658 27.5534 24.8626 27.0609 25.9617 25.9617C27.0609 24.8626 27.5534 23.4658 27.7882 21.7191C28.017 20.0175 28.017 17.8402 28.0169 15.0772V15V14.9228C28.017 12.1598 28.017 9.98245 27.7882 8.28086C27.5534 6.53421 27.0609 5.13739 25.9617 4.03827C24.8626 2.93914 23.4658 2.44662 21.7191 2.21179C20.0175 1.98302 17.8402 1.98303 15.0771 1.98305L15 1.98305L14.9229 1.98305C12.1598 1.98303 9.98246 1.98302 8.28086 2.21179C6.53421 2.44662 5.13739 2.93914 4.03827 4.03827L4.03827 4.03827C2.93914 5.13739 2.44662 6.53421 2.21179 8.28086C1.98302 9.98246 1.98303 12.1598 1.98305 14.9229L1.98305 15L1.98305 15.0771C1.98303 17.8402 1.98302 20.0175 2.21179 21.7191C2.44662 23.4658 2.93914 24.8626 4.03827 25.9617Z" stroke="white" stroke-width="2.0339"/>
<path fill-rule="evenodd" clip-rule="evenodd" d="M20.1967 9.92892C20.4778 10.2197 20.4739 10.6786 20.2261 10.9983C19.3436 12.1366 18.8155 13.5808 18.8155 15.1504C18.8155 16.72 19.3436 18.1642 20.2261 19.3025C20.4739 19.6222 20.4778 20.0811 20.1967 20.3719L18.9681 21.6427C18.6733 21.9476 18.1822 21.9492 17.912 21.6222C16.4717 19.8788 15.6009 17.6177 15.6009 15.1504C15.6009 12.6832 16.4717 10.422 17.912 8.67861C18.1822 8.35163 18.6733 8.35321 18.9681 8.65814L20.1967 9.92892ZM10.5 9.1499C10.5 8.73569 10.8358 8.3999 11.25 8.3999H13.05C13.4642 8.3999 13.8 8.73569 13.8 9.1499V21.1499C13.8 21.5641 13.4642 21.8999 13.05 21.8999H11.25C10.8358 21.8999 10.5 21.5641 10.5 21.1499V9.1499Z" fill="white"/>
<path d="M45.4927 21.8723L41.7713 17.2886V21.8723H39V7.49976H41.7713V15.6765L45.4531 11.1123H49.0558L44.2258 16.5117L49.0954 21.8723H45.4927Z" fill="white"/>
<path d="M60.7542 16.2592C60.7542 16.6477 60.7278 16.9973 60.675 17.308H52.6581C52.7241 18.0849 53.0012 18.6935 53.4895 19.1337C53.9778 19.574 54.5782 19.7941 55.2908 19.7941C56.3202 19.7941 57.0526 19.3603 57.4881 18.4928H60.4771C60.1604 19.5286 59.5533 20.3832 58.656 21.0565C57.7586 21.7169 56.6567 22.0471 55.3502 22.0471C54.2945 22.0471 53.3443 21.8205 52.4998 21.3673C51.6684 20.9012 51.0152 20.2473 50.5401 19.4056C50.0782 18.564 49.8473 17.5929 49.8473 16.4923C49.8473 15.3787 50.0782 14.4012 50.5401 13.5595C51.002 12.7179 51.6486 12.0705 52.48 11.6173C53.3114 11.1641 54.2681 10.9375 55.3502 10.9375C56.3928 10.9375 57.3231 11.1576 58.1413 11.5979C58.9727 12.0381 59.6127 12.6661 60.0614 13.4818C60.5233 14.2846 60.7542 15.2104 60.7542 16.2592ZM57.884 15.4823C57.8708 14.7831 57.6134 14.2263 57.112 13.812C56.6105 13.3847 55.9969 13.1711 55.271 13.1711C54.5848 13.1711 54.0042 13.3782 53.5291 13.7926C53.0672 14.194 52.7835 14.7572 52.6779 15.4823H57.884Z" fill="white"/>
<path d="M72.9713 16.2592C72.9713 16.6477 72.9449 16.9973 72.8922 17.308H64.8752C64.9412 18.0849 65.2184 18.6935 65.7066 19.1337C66.1949 19.574 66.7954 19.7941 67.508 19.7941C68.5373 19.7941 69.2697 19.3603 69.7052 18.4928H72.6942C72.3775 19.5286 71.7705 20.3832 70.8731 21.0565C69.9757 21.7169 68.8738 22.0471 67.5673 22.0471C66.5116 22.0471 65.5615 21.8205 64.7169 21.3673C63.8855 20.9012 63.2323 20.2473 62.7572 19.4056C62.2953 18.564 62.0644 17.5929 62.0644 16.4923C62.0644 15.3787 62.2953 14.4012 62.7572 13.5595C63.2191 12.7179 63.8657 12.0705 64.6971 11.6173C65.5285 11.1641 66.4852 10.9375 67.5673 10.9375C68.6099 10.9375 69.5402 11.1576 70.3584 11.5979C71.1898 12.0381 71.8298 12.6661 72.2785 13.4818C72.7404 14.2846 72.9713 15.2104 72.9713 16.2592ZM70.1011 15.4823C70.0879 14.7831 69.8306 14.2263 69.3291 13.812C68.8276 13.3847 68.214 13.1711 67.4882 13.1711C66.8019 13.1711 66.2213 13.3782 65.7462 13.7926C65.2843 14.194 65.0006 14.7572 64.895 15.4823H70.1011Z" fill="white"/>
<path d="M77.7654 12.6661C78.1217 12.1741 78.61 11.7662 79.2302 11.4425C79.8637 11.1058 80.5829 10.9375 81.3879 10.9375C82.3248 10.9375 83.1694 11.1641 83.9216 11.6173C84.687 12.0705 85.2874 12.7179 85.7229 13.5595C86.1716 14.3882 86.3959 15.3528 86.3959 16.4534C86.3959 17.554 86.1716 18.5316 85.7229 19.3862C85.2874 20.2278 84.687 20.8817 83.9216 21.3479C83.1694 21.814 82.3248 22.0471 81.3879 22.0471C80.5829 22.0471 79.8702 21.8852 79.25 21.5615C78.643 21.2378 78.1481 20.8299 77.7654 20.3379V26.9998H74.9941V11.1123H77.7654V12.6661ZM83.5653 16.4534C83.5653 15.806 83.4267 15.2493 83.1496 14.7831C82.8857 14.304 82.5294 13.9415 82.0807 13.6955C81.6452 13.4495 81.1701 13.3264 80.6554 13.3264C80.154 13.3264 79.6789 13.4559 79.2302 13.7149C78.7947 13.9609 78.4384 14.3235 78.1613 14.8025C77.8974 15.2816 77.7654 15.8449 77.7654 16.4923C77.7654 17.1397 77.8974 17.7029 78.1613 18.182C78.4384 18.6611 78.7947 19.0301 79.2302 19.2891C79.6789 19.5351 80.154 19.6581 80.6554 19.6581C81.1701 19.6581 81.6452 19.5286 82.0807 19.2697C82.5294 19.0107 82.8857 18.6417 83.1496 18.1626C83.4267 17.6835 83.5653 17.1138 83.5653 16.4534Z" fill="white"/>
<path d="M93.2793 22.0471C92.2236 22.0471 91.2734 21.8205 90.4288 21.3673C89.5843 20.9012 88.9178 20.2473 88.4296 19.4056C87.9545 18.564 87.7169 17.5929 87.7169 16.4923C87.7169 15.3917 87.9611 14.4206 88.4494 13.5789C88.9508 12.7373 89.6304 12.0899 90.4882 11.6367C91.346 11.1706 92.3027 10.9375 93.3585 10.9375C94.4142 10.9375 95.3709 11.1706 96.2287 11.6367C97.0865 12.0899 97.7595 12.7373 98.2478 13.5789C98.7493 14.4206 99 15.3917 99 16.4923C99 17.5929 98.7427 18.564 98.228 19.4056C97.7265 20.2473 97.0403 20.9012 96.1693 21.3673C95.3116 21.8205 94.3482 22.0471 93.2793 22.0471ZM93.2793 19.6775C93.7808 19.6775 94.2492 19.561 94.6847 19.3279C95.1334 19.0819 95.4897 18.7194 95.7536 18.2403C96.0176 17.7612 96.1495 17.1785 96.1495 16.4923C96.1495 15.4694 95.8724 14.686 95.3182 14.1422C94.7771 13.5854 94.1107 13.307 93.3189 13.307C92.5271 13.307 91.8607 13.5854 91.3196 14.1422C90.7917 14.686 90.5278 15.4694 90.5278 16.4923C90.5278 17.5152 90.7851 18.305 91.2998 18.8618C91.8277 19.4056 92.4875 19.6775 93.2793 19.6775Z" fill="white"/>
</svg>
