<svg width="38" height="38" viewBox="0 0 38 38" fill="none" xmlns="http://www.w3.org/2000/svg">
<path d="M4.38436 33.6156C5.84986 35.0811 7.71228 35.7378 10.0412 36.0509C12.31 36.356 15.2132 36.356 18.8973 36.3559H19H19.1027C22.7868 36.356 25.69 36.356 27.9588 36.0509C30.2877 35.7378 32.1501 35.0811 33.6156 33.6156C35.0811 32.1501 35.7378 30.2877 36.0509 27.9588C36.356 25.69 36.356 22.7868 36.3559 19.1027V19V18.8973C36.356 15.2132 36.356 12.31 36.0509 10.0412C35.7378 7.71228 35.0811 5.84986 33.6156 4.38436C32.1501 2.91886 30.2877 2.26216 27.9588 1.94905C25.6901 1.64402 22.7869 1.64404 19.1028 1.64407L19 1.64407L18.8972 1.64407C15.2131 1.64404 12.3099 1.64402 10.0412 1.94905C7.71228 2.26216 5.84986 2.91886 4.38436 4.38436L4.38436 4.38436C2.91886 5.84986 2.26216 7.71228 1.94905 10.0412C1.64402 12.3099 1.64404 15.2131 1.64407 18.8972L1.64407 19L1.64407 19.1028C1.64404 22.7869 1.64402 25.6901 1.94905 27.9588C2.26216 30.2877 2.91886 32.1501 4.38436 33.6156Z" stroke="white" stroke-width="2.71186"/>
<path fill-rule="evenodd" clip-rule="evenodd" d="M25.9289 12.2385C26.3038 12.6262 26.2985 13.238 25.9681 13.6643C24.7915 15.182 24.0873 17.1076 24.0873 19.2004C24.0873 21.2933 24.7915 23.2188 25.9681 24.7366C26.2985 25.1628 26.3038 25.7747 25.9289 26.1624L24.2908 27.8568C23.8978 28.2634 23.2429 28.2655 22.8827 27.8295C20.9622 25.5049 19.8011 22.4901 19.8011 19.2004C19.8011 15.9108 20.9622 12.8959 22.8827 10.5714C23.2429 10.1354 23.8978 10.1375 24.2908 10.5441L25.9289 12.2385ZM13 11.1996C13 10.6473 13.4477 10.1996 14 10.1996H16.4C16.9523 10.1996 17.4 10.6473 17.4 11.1996V27.1996C17.4 27.7519 16.9523 28.1996 16.4 28.1996H14C13.4477 28.1996 13 27.7519 13 27.1996V11.1996Z" fill="white"/>
</svg>
