<svg width="131" height="38" viewBox="0 0 131 38" fill="none" xmlns="http://www.w3.org/2000/svg">
<path d="M4.38436 4.38436L5.34314 5.34315L4.38436 4.38436C2.91886 5.84986 2.26216 7.71228 1.94905 10.0412C1.64402 12.3099 1.64404 15.2131 1.64407 18.8972L1.64407 19L1.64407 19.1028C1.64404 22.7869 1.64402 25.6901 1.94905 27.9588C2.26199 30.2864 2.91813 32.1481 4.38192 33.6132C4.38273 33.614 4.38354 33.6148 4.38436 33.6156C4.38452 33.6158 4.38467 33.616 4.38483 33.6161C4.38505 33.6163 4.38526 33.6165 4.38547 33.6168C4.38602 33.6173 4.38657 33.6179 4.38711 33.6184L4.7815 34.0128H4.81397C6.20887 35.2031 7.9341 35.7677 10.0412 36.0509C12.31 36.356 15.2132 36.356 18.8973 36.3559H19H19.1027C22.7868 36.356 25.69 36.356 27.9588 36.0509C30.2877 35.7378 32.1501 35.0811 33.6156 33.6156C35.0811 32.1501 35.7378 30.2877 36.0509 27.9588C36.356 25.69 36.356 22.7868 36.3559 19.1027V19V18.8973C36.356 15.2132 36.356 12.31 36.0509 10.0412C35.7677 7.9341 35.2031 6.20887 34.0128 4.81397V4.7815L33.6184 4.38711C33.6179 4.38657 33.6173 4.38602 33.6168 4.38547C33.6164 4.3851 33.616 4.38473 33.6156 4.38436C33.6155 4.38418 33.6153 4.384 33.6151 4.38382C33.5892 4.35797 33.5662 4.33704 33.5484 4.32155C33.566 4.3369 33.5888 4.35759 33.6144 4.38312C32.1491 2.91849 30.2871 2.26207 27.9588 1.94905C25.6901 1.64402 22.7869 1.64404 19.1028 1.64407L19 1.64407L18.8972 1.64407C15.2131 1.64404 12.3099 1.64402 10.0412 1.94905C7.71228 2.26216 5.84986 2.91886 4.38436 4.38436Z" stroke="#181A20" stroke-width="2.71186"/>
<path fill-rule="evenodd" clip-rule="evenodd" d="M25.9289 12.2386C26.3038 12.6263 26.2985 13.2382 25.9681 13.6644C24.7915 15.1822 24.0873 17.1077 24.0873 19.2006C24.0873 21.2934 24.7915 23.219 25.9681 24.7367C26.2985 25.1629 26.3038 25.7748 25.9289 26.1625L24.2908 27.8569C23.8978 28.2635 23.2429 28.2656 22.8827 27.8296C20.9622 25.5051 19.8011 22.4902 19.8011 19.2006C19.8011 15.9109 20.9622 12.896 22.8827 10.5715C23.2429 10.1355 23.8978 10.1376 24.2908 10.5442L25.9289 12.2386ZM13 11.1997C13 10.6474 13.4477 10.1997 14 10.1997H16.4C16.9523 10.1997 17.4 10.6474 17.4 11.1997V27.1997C17.4 27.752 16.9523 28.1997 16.4 28.1997H14C13.4477 28.1997 13 27.752 13 27.1997V11.1997Z" fill="#181A20"/>
<path d="M59.6569 28.1633L54.695 22.0518V28.1633H51V9H54.695V19.9024L59.6042 13.8167H64.4077L57.9678 21.0159L64.4605 28.1633H59.6569Z" fill="#181A20"/>
<path d="M80.0056 20.6793C80.0056 21.1972 79.9704 21.6633 79.9 22.0777H69.2108C69.2988 23.1135 69.6683 23.925 70.3193 24.512C70.9704 25.0989 71.771 25.3924 72.7211 25.3924C74.0936 25.3924 75.0701 24.8141 75.6508 23.6574H79.6361C79.2138 25.0385 78.4044 26.178 77.2079 27.0757C76.0115 27.9562 74.5422 28.3964 72.8003 28.3964C71.3927 28.3964 70.1258 28.0943 68.9997 27.49C67.8912 26.8685 67.0202 25.9967 66.3868 24.8745C65.7709 23.7523 65.463 22.4575 65.463 20.99C65.463 19.5053 65.7709 18.2019 66.3868 17.0797C67.0026 15.9575 67.8648 15.0943 68.9733 14.49C70.0818 13.8858 71.3575 13.5837 72.8003 13.5837C74.1903 13.5837 75.4308 13.8772 76.5217 14.4641C77.6302 15.0511 78.4836 15.8884 79.0819 16.9761C79.6977 18.0465 80.0056 19.2809 80.0056 20.6793ZM76.1786 19.6434C76.161 18.7112 75.8179 17.9688 75.1493 17.4163C74.4807 16.8466 73.6625 16.5618 72.6947 16.5618C71.7798 16.5618 71.0056 16.838 70.3721 17.3904C69.7563 17.9256 69.378 18.6766 69.2372 19.6434H76.1786Z" fill="#181A20"/>
<path d="M96.2951 20.6793C96.2951 21.1972 96.2599 21.6633 96.1895 22.0777H85.5003C85.5883 23.1135 85.9578 23.925 86.6088 24.512C87.2599 25.0989 88.0605 25.3924 89.0106 25.3924C90.3831 25.3924 91.3596 24.8141 91.9403 23.6574H95.9256C95.5033 25.0385 94.6939 26.178 93.4974 27.0757C92.301 27.9562 90.8317 28.3964 89.0898 28.3964C87.6822 28.3964 86.4153 28.0943 85.2892 27.49C84.1807 26.8685 83.3097 25.9967 82.6763 24.8745C82.0604 23.7523 81.7525 22.4575 81.7525 20.99C81.7525 19.5053 82.0604 18.2019 82.6763 17.0797C83.2921 15.9575 84.1543 15.0943 85.2628 14.49C86.3713 13.8858 87.647 13.5837 89.0898 13.5837C90.4798 13.5837 91.7203 13.8772 92.8112 14.4641C93.9197 15.0511 94.7731 15.8884 95.3714 16.9761C95.9872 18.0465 96.2951 19.2809 96.2951 20.6793ZM92.4681 19.6434C92.4505 18.7112 92.1074 17.9688 91.4388 17.4163C90.7702 16.8466 89.952 16.5618 88.9842 16.5618C88.0693 16.5618 87.2951 16.838 86.6616 17.3904C86.0458 17.9256 85.6675 18.6766 85.5267 19.6434H92.4681Z" fill="#181A20"/>
<path d="M102.687 15.8884C103.162 15.2324 103.813 14.6886 104.64 14.257C105.485 13.8081 106.444 13.5837 107.517 13.5837C108.766 13.5837 109.893 13.8858 110.895 14.49C111.916 15.0943 112.717 15.9575 113.297 17.0797C113.895 18.1846 114.195 19.4708 114.195 20.9382C114.195 22.4057 113.895 23.7092 113.297 24.8486C112.717 25.9708 111.916 26.8426 110.895 27.4641C109.893 28.0857 108.766 28.3964 107.517 28.3964C106.444 28.3964 105.494 28.1806 104.667 27.749C103.857 27.3174 103.197 26.7736 102.687 26.1175V35H98.9922V13.8167H102.687V15.8884ZM110.42 20.9382C110.42 20.075 110.236 19.3327 109.866 18.7112C109.514 18.0724 109.039 17.589 108.441 17.261C107.86 16.9329 107.227 16.7689 106.541 16.7689C105.872 16.7689 105.239 16.9416 104.64 17.2869C104.06 17.6149 103.585 18.0983 103.215 18.7371C102.863 19.3758 102.687 20.1268 102.687 20.99C102.687 21.8533 102.863 22.6043 103.215 23.243C103.585 23.8818 104.06 24.3738 104.64 24.7191C105.239 25.0471 105.872 25.2112 106.541 25.2112C107.227 25.2112 107.86 25.0385 108.441 24.6932C109.039 24.3479 109.514 23.8559 109.866 23.2171C110.236 22.5784 110.42 21.8187 110.42 20.9382Z" fill="#181A20"/>
<path d="M123.372 28.3964C121.965 28.3964 120.698 28.0943 119.572 27.49C118.446 26.8685 117.557 25.9967 116.906 24.8745C116.273 23.7523 115.956 22.4575 115.956 20.99C115.956 19.5226 116.281 18.2278 116.932 17.1056C117.601 15.9834 118.507 15.1202 119.651 14.5159C120.795 13.8944 122.07 13.5837 123.478 13.5837C124.886 13.5837 126.161 13.8944 127.305 14.5159C128.449 15.1202 129.346 15.9834 129.997 17.1056C130.666 18.2278 131 19.5226 131 20.99C131 22.4575 130.657 23.7523 129.971 24.8745C129.302 25.9967 128.387 26.8685 127.226 27.49C126.082 28.0943 124.798 28.3964 123.372 28.3964ZM123.372 25.2371C124.041 25.2371 124.666 25.0817 125.246 24.7709C125.845 24.4429 126.32 23.9595 126.672 23.3207C127.023 22.6819 127.199 21.905 127.199 20.99C127.199 19.6262 126.83 18.5817 126.091 17.8566C125.369 17.1142 124.481 16.743 123.425 16.743C122.369 16.743 121.481 17.1142 120.759 17.8566C120.056 18.5817 119.704 19.6262 119.704 20.99C119.704 22.3539 120.047 23.407 120.733 24.1494C121.437 24.8745 122.317 25.2371 123.372 25.2371Z" fill="#181A20"/>
</svg>
